<mxfile host="app.diagrams.net" modified="2022-05-26T06:03:45.514Z" agent="5.0 (Macintosh; Intel Mac OS X 10_15_7) AppleWebKit/537.36 (KHTML, like Gecko) Chrome/101.0.4951.64 Safari/537.36" etag="jY77z84f6myJCI1RvOjT" version="18.1.2" type="github">
  <diagram id="RMcL3n7hpZ8fIVGod4ny" name="Page-1">
    <mxGraphModel dx="1956" dy="534" grid="0" gridSize="10" guides="1" tooltips="1" connect="1" arrows="1" fold="1" page="1" pageScale="1" pageWidth="850" pageHeight="1100" math="0" shadow="0">
      <root>
        <mxCell id="0" />
        <mxCell id="1" parent="0" />
        <mxCell id="Oak1mWo9v-8OV0q6VtSm-3" value="" style="rounded=0;whiteSpace=wrap;html=1;fillColor=none;" parent="1" vertex="1">
          <mxGeometry x="238.5" y="218" width="570" height="240" as="geometry" />
        </mxCell>
        <mxCell id="Oak1mWo9v-8OV0q6VtSm-4" value="" style="rounded=0;whiteSpace=wrap;html=1;fillColor=none;" parent="1" vertex="1">
          <mxGeometry x="248.5" y="228" width="410" height="220" as="geometry" />
        </mxCell>
        <mxCell id="UXOGcqwC0pb2AC3sruDp-33" value="" style="rounded=0;whiteSpace=wrap;html=1;fillColor=none;" parent="1" vertex="1">
          <mxGeometry x="268.5" y="354" width="370" height="80" as="geometry" />
        </mxCell>
        <mxCell id="Oak1mWo9v-8OV0q6VtSm-10" value="User" style="swimlane;fontStyle=0;childLayout=stackLayout;horizontal=1;startSize=26;fillColor=none;horizontalStack=0;resizeParent=1;resizeParentMax=0;resizeLast=0;collapsible=1;marginBottom=0;" parent="1" vertex="1">
          <mxGeometry x="120" y="770" width="230.67" height="234" as="geometry" />
        </mxCell>
        <mxCell id="Oak1mWo9v-8OV0q6VtSm-11" value="+ _id: ObjectID" style="text;strokeColor=none;fillColor=none;align=left;verticalAlign=top;spacingLeft=4;spacingRight=4;overflow=hidden;rotatable=0;points=[[0,0.5],[1,0.5]];portConstraint=eastwest;" parent="Oak1mWo9v-8OV0q6VtSm-10" vertex="1">
          <mxGeometry y="26" width="230.67" height="26" as="geometry" />
        </mxCell>
        <mxCell id="Oak1mWo9v-8OV0q6VtSm-12" value="+ name: string" style="text;strokeColor=none;fillColor=none;align=left;verticalAlign=top;spacingLeft=4;spacingRight=4;overflow=hidden;rotatable=0;points=[[0,0.5],[1,0.5]];portConstraint=eastwest;" parent="Oak1mWo9v-8OV0q6VtSm-10" vertex="1">
          <mxGeometry y="52" width="230.67" height="26" as="geometry" />
        </mxCell>
        <mxCell id="Oak1mWo9v-8OV0q6VtSm-13" value="+ email: string" style="text;strokeColor=none;fillColor=none;align=left;verticalAlign=top;spacingLeft=4;spacingRight=4;overflow=hidden;rotatable=0;points=[[0,0.5],[1,0.5]];portConstraint=eastwest;" parent="Oak1mWo9v-8OV0q6VtSm-10" vertex="1">
          <mxGeometry y="78" width="230.67" height="26" as="geometry" />
        </mxCell>
        <mxCell id="Oak1mWo9v-8OV0q6VtSm-14" value="+ password: string" style="text;strokeColor=none;fillColor=none;align=left;verticalAlign=top;spacingLeft=4;spacingRight=4;overflow=hidden;rotatable=0;points=[[0,0.5],[1,0.5]];portConstraint=eastwest;" parent="Oak1mWo9v-8OV0q6VtSm-10" vertex="1">
          <mxGeometry y="104" width="230.67" height="26" as="geometry" />
        </mxCell>
        <mxCell id="Oak1mWo9v-8OV0q6VtSm-113" value="+ skills: array&lt;ObjectID&gt;" style="text;strokeColor=none;fillColor=none;align=left;verticalAlign=top;spacingLeft=4;spacingRight=4;overflow=hidden;rotatable=0;points=[[0,0.5],[1,0.5]];portConstraint=eastwest;" parent="Oak1mWo9v-8OV0q6VtSm-10" vertex="1">
          <mxGeometry y="130" width="230.67" height="26" as="geometry" />
        </mxCell>
        <mxCell id="Oak1mWo9v-8OV0q6VtSm-16" value="+ default_role: string (freelancer | client)" style="text;strokeColor=none;fillColor=none;align=left;verticalAlign=top;spacingLeft=4;spacingRight=4;overflow=hidden;rotatable=0;points=[[0,0.5],[1,0.5]];portConstraint=eastwest;" parent="Oak1mWo9v-8OV0q6VtSm-10" vertex="1">
          <mxGeometry y="156" width="230.67" height="26" as="geometry" />
        </mxCell>
        <mxCell id="UXOGcqwC0pb2AC3sruDp-13" value="+ location: coordinates" style="text;strokeColor=none;fillColor=none;align=left;verticalAlign=top;spacingLeft=4;spacingRight=4;overflow=hidden;rotatable=0;points=[[0,0.5],[1,0.5]];portConstraint=eastwest;" parent="Oak1mWo9v-8OV0q6VtSm-10" vertex="1">
          <mxGeometry y="182" width="230.67" height="26" as="geometry" />
        </mxCell>
        <mxCell id="UXOGcqwC0pb2AC3sruDp-22" value="+ keywords: array&lt;string&gt;" style="text;strokeColor=none;fillColor=none;align=left;verticalAlign=top;spacingLeft=4;spacingRight=4;overflow=hidden;rotatable=0;points=[[0,0.5],[1,0.5]];portConstraint=eastwest;" parent="Oak1mWo9v-8OV0q6VtSm-10" vertex="1">
          <mxGeometry y="208" width="230.67" height="26" as="geometry" />
        </mxCell>
        <mxCell id="Oak1mWo9v-8OV0q6VtSm-19" value="Admin" style="swimlane;fontStyle=0;childLayout=stackLayout;horizontal=1;startSize=26;fillColor=none;horizontalStack=0;resizeParent=1;resizeParentMax=0;resizeLast=0;collapsible=1;marginBottom=0;" parent="1" vertex="1">
          <mxGeometry x="120" y="1389" width="210" height="130" as="geometry" />
        </mxCell>
        <mxCell id="Oak1mWo9v-8OV0q6VtSm-20" value="+ _id: ObjectID" style="text;strokeColor=none;fillColor=none;align=left;verticalAlign=top;spacingLeft=4;spacingRight=4;overflow=hidden;rotatable=0;points=[[0,0.5],[1,0.5]];portConstraint=eastwest;" parent="Oak1mWo9v-8OV0q6VtSm-19" vertex="1">
          <mxGeometry y="26" width="210" height="26" as="geometry" />
        </mxCell>
        <mxCell id="Oak1mWo9v-8OV0q6VtSm-21" value="+ name: string" style="text;strokeColor=none;fillColor=none;align=left;verticalAlign=top;spacingLeft=4;spacingRight=4;overflow=hidden;rotatable=0;points=[[0,0.5],[1,0.5]];portConstraint=eastwest;" parent="Oak1mWo9v-8OV0q6VtSm-19" vertex="1">
          <mxGeometry y="52" width="210" height="26" as="geometry" />
        </mxCell>
        <mxCell id="Oak1mWo9v-8OV0q6VtSm-23" value="+ password: string" style="text;strokeColor=none;fillColor=none;align=left;verticalAlign=top;spacingLeft=4;spacingRight=4;overflow=hidden;rotatable=0;points=[[0,0.5],[1,0.5]];portConstraint=eastwest;" parent="Oak1mWo9v-8OV0q6VtSm-19" vertex="1">
          <mxGeometry y="78" width="210" height="26" as="geometry" />
        </mxCell>
        <mxCell id="Oak1mWo9v-8OV0q6VtSm-22" value="+ email: string" style="text;strokeColor=none;fillColor=none;align=left;verticalAlign=top;spacingLeft=4;spacingRight=4;overflow=hidden;rotatable=0;points=[[0,0.5],[1,0.5]];portConstraint=eastwest;" parent="Oak1mWo9v-8OV0q6VtSm-19" vertex="1">
          <mxGeometry y="104" width="210" height="26" as="geometry" />
        </mxCell>
        <mxCell id="Oak1mWo9v-8OV0q6VtSm-53" value="&lt;b&gt;Entity Relationship Diagram&lt;/b&gt;" style="text;html=1;strokeColor=none;fillColor=none;align=left;verticalAlign=middle;whiteSpace=wrap;rounded=0;" parent="1" vertex="1">
          <mxGeometry x="34" y="674" width="240" height="30" as="geometry" />
        </mxCell>
        <mxCell id="Oak1mWo9v-8OV0q6VtSm-80" value="Service" style="swimlane;fontStyle=0;childLayout=stackLayout;horizontal=1;startSize=26;fillColor=none;horizontalStack=0;resizeParent=1;resizeParentMax=0;resizeLast=0;collapsible=1;marginBottom=0;" parent="1" vertex="1">
          <mxGeometry x="117" y="1170" width="230.67" height="182" as="geometry" />
        </mxCell>
        <mxCell id="Oak1mWo9v-8OV0q6VtSm-81" value="+ _id: ObjectID" style="text;strokeColor=none;fillColor=none;align=left;verticalAlign=top;spacingLeft=4;spacingRight=4;overflow=hidden;rotatable=0;points=[[0,0.5],[1,0.5]];portConstraint=eastwest;" parent="Oak1mWo9v-8OV0q6VtSm-80" vertex="1">
          <mxGeometry y="26" width="230.67" height="26" as="geometry" />
        </mxCell>
        <mxCell id="Oak1mWo9v-8OV0q6VtSm-82" value="+ title: string" style="text;strokeColor=none;fillColor=none;align=left;verticalAlign=top;spacingLeft=4;spacingRight=4;overflow=hidden;rotatable=0;points=[[0,0.5],[1,0.5]];portConstraint=eastwest;" parent="Oak1mWo9v-8OV0q6VtSm-80" vertex="1">
          <mxGeometry y="52" width="230.67" height="26" as="geometry" />
        </mxCell>
        <mxCell id="Oak1mWo9v-8OV0q6VtSm-83" value="+ freelancer: ObjectID" style="text;strokeColor=none;fillColor=none;align=left;verticalAlign=top;spacingLeft=4;spacingRight=4;overflow=hidden;rotatable=0;points=[[0,0.5],[1,0.5]];portConstraint=eastwest;" parent="Oak1mWo9v-8OV0q6VtSm-80" vertex="1">
          <mxGeometry y="78" width="230.67" height="26" as="geometry" />
        </mxCell>
        <mxCell id="Oak1mWo9v-8OV0q6VtSm-86" value="+ rating: number" style="text;strokeColor=none;fillColor=none;align=left;verticalAlign=top;spacingLeft=4;spacingRight=4;overflow=hidden;rotatable=0;points=[[0,0.5],[1,0.5]];portConstraint=eastwest;" parent="Oak1mWo9v-8OV0q6VtSm-80" vertex="1">
          <mxGeometry y="104" width="230.67" height="26" as="geometry" />
        </mxCell>
        <mxCell id="UXOGcqwC0pb2AC3sruDp-5" value="+ category: ObjectID" style="text;strokeColor=none;fillColor=none;align=left;verticalAlign=top;spacingLeft=4;spacingRight=4;overflow=hidden;rotatable=0;points=[[0,0.5],[1,0.5]];portConstraint=eastwest;" parent="Oak1mWo9v-8OV0q6VtSm-80" vertex="1">
          <mxGeometry y="130" width="230.67" height="26" as="geometry" />
        </mxCell>
        <mxCell id="UXOGcqwC0pb2AC3sruDp-24" value="+ keywords: array&lt;string&gt;" style="text;strokeColor=none;fillColor=none;align=left;verticalAlign=top;spacingLeft=4;spacingRight=4;overflow=hidden;rotatable=0;points=[[0,0.5],[1,0.5]];portConstraint=eastwest;" parent="Oak1mWo9v-8OV0q6VtSm-80" vertex="1">
          <mxGeometry y="156" width="230.67" height="26" as="geometry" />
        </mxCell>
        <mxCell id="Oak1mWo9v-8OV0q6VtSm-94" value="Booking" style="swimlane;fontStyle=0;childLayout=stackLayout;horizontal=1;startSize=26;fillColor=none;horizontalStack=0;resizeParent=1;resizeParentMax=0;resizeLast=0;collapsible=1;marginBottom=0;" parent="1" vertex="1">
          <mxGeometry x="493" y="1022" width="212" height="234" as="geometry" />
        </mxCell>
        <mxCell id="Oak1mWo9v-8OV0q6VtSm-95" value="+ _id: ObjectID" style="text;strokeColor=none;fillColor=none;align=left;verticalAlign=top;spacingLeft=4;spacingRight=4;overflow=hidden;rotatable=0;points=[[0,0.5],[1,0.5]];portConstraint=eastwest;" parent="Oak1mWo9v-8OV0q6VtSm-94" vertex="1">
          <mxGeometry y="26" width="212" height="26" as="geometry" />
        </mxCell>
        <mxCell id="Oak1mWo9v-8OV0q6VtSm-97" value="+ freelancer: ObjectID" style="text;strokeColor=none;fillColor=none;align=left;verticalAlign=top;spacingLeft=4;spacingRight=4;overflow=hidden;rotatable=0;points=[[0,0.5],[1,0.5]];portConstraint=eastwest;" parent="Oak1mWo9v-8OV0q6VtSm-94" vertex="1">
          <mxGeometry y="52" width="212" height="26" as="geometry" />
        </mxCell>
        <mxCell id="Oak1mWo9v-8OV0q6VtSm-98" value="+ client: ObjectID" style="text;strokeColor=none;fillColor=none;align=left;verticalAlign=top;spacingLeft=4;spacingRight=4;overflow=hidden;rotatable=0;points=[[0,0.5],[1,0.5]];portConstraint=eastwest;" parent="Oak1mWo9v-8OV0q6VtSm-94" vertex="1">
          <mxGeometry y="78" width="212" height="26" as="geometry" />
        </mxCell>
        <mxCell id="Oak1mWo9v-8OV0q6VtSm-99" value="+ service: ObjectID" style="text;strokeColor=none;fillColor=none;align=left;verticalAlign=top;spacingLeft=4;spacingRight=4;overflow=hidden;rotatable=0;points=[[0,0.5],[1,0.5]];portConstraint=eastwest;" parent="Oak1mWo9v-8OV0q6VtSm-94" vertex="1">
          <mxGeometry y="104" width="212" height="26" as="geometry" />
        </mxCell>
        <mxCell id="UXOGcqwC0pb2AC3sruDp-2" value="+ user_review: string" style="text;strokeColor=none;fillColor=none;align=left;verticalAlign=top;spacingLeft=4;spacingRight=4;overflow=hidden;rotatable=0;points=[[0,0.5],[1,0.5]];portConstraint=eastwest;" parent="Oak1mWo9v-8OV0q6VtSm-94" vertex="1">
          <mxGeometry y="130" width="212" height="26" as="geometry" />
        </mxCell>
        <mxCell id="UXOGcqwC0pb2AC3sruDp-4" value="+ user_rating: number" style="text;strokeColor=none;fillColor=none;align=left;verticalAlign=top;spacingLeft=4;spacingRight=4;overflow=hidden;rotatable=0;points=[[0,0.5],[1,0.5]];portConstraint=eastwest;" parent="Oak1mWo9v-8OV0q6VtSm-94" vertex="1">
          <mxGeometry y="156" width="212" height="26" as="geometry" />
        </mxCell>
        <mxCell id="UXOGcqwC0pb2AC3sruDp-9" value="+ freelancer_review: string" style="text;strokeColor=none;fillColor=none;align=left;verticalAlign=top;spacingLeft=4;spacingRight=4;overflow=hidden;rotatable=0;points=[[0,0.5],[1,0.5]];portConstraint=eastwest;" parent="Oak1mWo9v-8OV0q6VtSm-94" vertex="1">
          <mxGeometry y="182" width="212" height="26" as="geometry" />
        </mxCell>
        <mxCell id="UXOGcqwC0pb2AC3sruDp-8" value="+ freelancer_rating: number" style="text;strokeColor=none;fillColor=none;align=left;verticalAlign=top;spacingLeft=4;spacingRight=4;overflow=hidden;rotatable=0;points=[[0,0.5],[1,0.5]];portConstraint=eastwest;" parent="Oak1mWo9v-8OV0q6VtSm-94" vertex="1">
          <mxGeometry y="208" width="212" height="26" as="geometry" />
        </mxCell>
        <mxCell id="Oak1mWo9v-8OV0q6VtSm-100" style="edgeStyle=orthogonalEdgeStyle;rounded=0;orthogonalLoop=1;jettySize=auto;html=1;" parent="1" source="Oak1mWo9v-8OV0q6VtSm-97" target="Oak1mWo9v-8OV0q6VtSm-10" edge="1">
          <mxGeometry relative="1" as="geometry">
            <Array as="points">
              <mxPoint x="427" y="1087" />
              <mxPoint x="427" y="1036" />
              <mxPoint x="286" y="1036" />
            </Array>
          </mxGeometry>
        </mxCell>
        <mxCell id="Oak1mWo9v-8OV0q6VtSm-124" value="1 : n" style="edgeLabel;html=1;align=center;verticalAlign=middle;resizable=0;points=[];" parent="Oak1mWo9v-8OV0q6VtSm-100" vertex="1" connectable="0">
          <mxGeometry x="-0.395" relative="1" as="geometry">
            <mxPoint y="-1" as="offset" />
          </mxGeometry>
        </mxCell>
        <mxCell id="Oak1mWo9v-8OV0q6VtSm-101" style="edgeStyle=orthogonalEdgeStyle;rounded=0;orthogonalLoop=1;jettySize=auto;html=1;" parent="1" source="Oak1mWo9v-8OV0q6VtSm-98" target="Oak1mWo9v-8OV0q6VtSm-10" edge="1">
          <mxGeometry relative="1" as="geometry">
            <Array as="points">
              <mxPoint x="374" y="1113" />
              <mxPoint x="374" y="1083" />
              <mxPoint x="181" y="1083" />
            </Array>
          </mxGeometry>
        </mxCell>
        <mxCell id="Oak1mWo9v-8OV0q6VtSm-123" value="1 : n" style="edgeLabel;html=1;align=center;verticalAlign=middle;resizable=0;points=[];" parent="Oak1mWo9v-8OV0q6VtSm-101" vertex="1" connectable="0">
          <mxGeometry x="-0.4344" y="-5" relative="1" as="geometry">
            <mxPoint as="offset" />
          </mxGeometry>
        </mxCell>
        <mxCell id="Oak1mWo9v-8OV0q6VtSm-102" style="edgeStyle=orthogonalEdgeStyle;rounded=0;orthogonalLoop=1;jettySize=auto;html=1;" parent="1" source="Oak1mWo9v-8OV0q6VtSm-99" target="Oak1mWo9v-8OV0q6VtSm-80" edge="1">
          <mxGeometry relative="1" as="geometry" />
        </mxCell>
        <mxCell id="Oak1mWo9v-8OV0q6VtSm-122" value="1 : n" style="edgeLabel;html=1;align=center;verticalAlign=middle;resizable=0;points=[];" parent="Oak1mWo9v-8OV0q6VtSm-102" vertex="1" connectable="0">
          <mxGeometry x="-0.2238" y="5" relative="1" as="geometry">
            <mxPoint as="offset" />
          </mxGeometry>
        </mxCell>
        <mxCell id="Oak1mWo9v-8OV0q6VtSm-103" style="edgeStyle=orthogonalEdgeStyle;rounded=0;orthogonalLoop=1;jettySize=auto;html=1;" parent="1" source="Oak1mWo9v-8OV0q6VtSm-83" target="Oak1mWo9v-8OV0q6VtSm-10" edge="1">
          <mxGeometry relative="1" as="geometry">
            <Array as="points">
              <mxPoint x="85" y="1261" />
              <mxPoint x="85" y="848" />
            </Array>
          </mxGeometry>
        </mxCell>
        <mxCell id="Oak1mWo9v-8OV0q6VtSm-120" value="1 : n" style="edgeLabel;html=1;align=center;verticalAlign=middle;resizable=0;points=[];" parent="Oak1mWo9v-8OV0q6VtSm-103" vertex="1" connectable="0">
          <mxGeometry x="0.0775" y="-1" relative="1" as="geometry">
            <mxPoint as="offset" />
          </mxGeometry>
        </mxCell>
        <mxCell id="Oak1mWo9v-8OV0q6VtSm-107" value="Category" style="swimlane;fontStyle=0;childLayout=stackLayout;horizontal=1;startSize=26;fillColor=none;horizontalStack=0;resizeParent=1;resizeParentMax=0;resizeLast=0;collapsible=1;marginBottom=0;" parent="1" vertex="1">
          <mxGeometry x="493" y="764" width="210" height="78" as="geometry" />
        </mxCell>
        <mxCell id="Oak1mWo9v-8OV0q6VtSm-108" value="+ _id: ObjectID" style="text;strokeColor=none;fillColor=none;align=left;verticalAlign=top;spacingLeft=4;spacingRight=4;overflow=hidden;rotatable=0;points=[[0,0.5],[1,0.5]];portConstraint=eastwest;" parent="Oak1mWo9v-8OV0q6VtSm-107" vertex="1">
          <mxGeometry y="26" width="210" height="26" as="geometry" />
        </mxCell>
        <mxCell id="Oak1mWo9v-8OV0q6VtSm-109" value="+ name: string" style="text;strokeColor=none;fillColor=none;align=left;verticalAlign=top;spacingLeft=4;spacingRight=4;overflow=hidden;rotatable=0;points=[[0,0.5],[1,0.5]];portConstraint=eastwest;" parent="Oak1mWo9v-8OV0q6VtSm-107" vertex="1">
          <mxGeometry y="52" width="210" height="26" as="geometry" />
        </mxCell>
        <mxCell id="Oak1mWo9v-8OV0q6VtSm-114" style="edgeStyle=orthogonalEdgeStyle;rounded=0;orthogonalLoop=1;jettySize=auto;html=1;" parent="1" source="Oak1mWo9v-8OV0q6VtSm-113" target="Oak1mWo9v-8OV0q6VtSm-107" edge="1">
          <mxGeometry relative="1" as="geometry">
            <Array as="points">
              <mxPoint x="419" y="913" />
              <mxPoint x="419" y="803" />
            </Array>
          </mxGeometry>
        </mxCell>
        <mxCell id="Oak1mWo9v-8OV0q6VtSm-115" value="m : n" style="edgeLabel;html=1;align=center;verticalAlign=middle;resizable=0;points=[];" parent="Oak1mWo9v-8OV0q6VtSm-114" vertex="1" connectable="0">
          <mxGeometry x="-0.1605" y="2" relative="1" as="geometry">
            <mxPoint x="-1" as="offset" />
          </mxGeometry>
        </mxCell>
        <mxCell id="Oak1mWo9v-8OV0q6VtSm-116" value="Subcategory" style="swimlane;fontStyle=0;childLayout=stackLayout;horizontal=1;startSize=26;fillColor=none;horizontalStack=0;resizeParent=1;resizeParentMax=0;resizeLast=0;collapsible=1;marginBottom=0;" parent="1" vertex="1">
          <mxGeometry x="493" y="884" width="210" height="104" as="geometry" />
        </mxCell>
        <mxCell id="Oak1mWo9v-8OV0q6VtSm-117" value="+ _id: ObjectID" style="text;strokeColor=none;fillColor=none;align=left;verticalAlign=top;spacingLeft=4;spacingRight=4;overflow=hidden;rotatable=0;points=[[0,0.5],[1,0.5]];portConstraint=eastwest;" parent="Oak1mWo9v-8OV0q6VtSm-116" vertex="1">
          <mxGeometry y="26" width="210" height="26" as="geometry" />
        </mxCell>
        <mxCell id="Oak1mWo9v-8OV0q6VtSm-118" value="+ name: string" style="text;strokeColor=none;fillColor=none;align=left;verticalAlign=top;spacingLeft=4;spacingRight=4;overflow=hidden;rotatable=0;points=[[0,0.5],[1,0.5]];portConstraint=eastwest;" parent="Oak1mWo9v-8OV0q6VtSm-116" vertex="1">
          <mxGeometry y="52" width="210" height="26" as="geometry" />
        </mxCell>
        <mxCell id="Oak1mWo9v-8OV0q6VtSm-127" value="+ category: ObjectID" style="text;strokeColor=none;fillColor=none;align=left;verticalAlign=top;spacingLeft=4;spacingRight=4;overflow=hidden;rotatable=0;points=[[0,0.5],[1,0.5]];portConstraint=eastwest;" parent="Oak1mWo9v-8OV0q6VtSm-116" vertex="1">
          <mxGeometry y="78" width="210" height="26" as="geometry" />
        </mxCell>
        <mxCell id="Oak1mWo9v-8OV0q6VtSm-128" style="edgeStyle=orthogonalEdgeStyle;rounded=0;orthogonalLoop=1;jettySize=auto;html=1;" parent="1" source="Oak1mWo9v-8OV0q6VtSm-127" target="Oak1mWo9v-8OV0q6VtSm-107" edge="1">
          <mxGeometry relative="1" as="geometry">
            <Array as="points">
              <mxPoint x="734" y="975" />
              <mxPoint x="734" y="803" />
            </Array>
          </mxGeometry>
        </mxCell>
        <mxCell id="Oak1mWo9v-8OV0q6VtSm-129" value="1 : n" style="edgeLabel;html=1;align=center;verticalAlign=middle;resizable=0;points=[];" parent="Oak1mWo9v-8OV0q6VtSm-128" vertex="1" connectable="0">
          <mxGeometry x="0.0629" y="1" relative="1" as="geometry">
            <mxPoint y="1" as="offset" />
          </mxGeometry>
        </mxCell>
        <mxCell id="Oak1mWo9v-8OV0q6VtSm-130" style="edgeStyle=orthogonalEdgeStyle;rounded=0;orthogonalLoop=1;jettySize=auto;html=1;exitX=0.5;exitY=1;exitDx=0;exitDy=0;" parent="1" source="Oak1mWo9v-8OV0q6VtSm-53" target="Oak1mWo9v-8OV0q6VtSm-53" edge="1">
          <mxGeometry relative="1" as="geometry" />
        </mxCell>
        <mxCell id="UXOGcqwC0pb2AC3sruDp-1" value="&lt;div style=&quot;font-size: 14px;&quot;&gt;Questions about the architecture of the solution.&lt;/div&gt;&lt;ul style=&quot;&quot;&gt;&lt;li style=&quot;font-size: 14px;&quot;&gt;Basic description.&lt;br style=&quot;font-size: 14px;&quot;&gt;The solution is a job boarding application for freelancers. The job boarding process of this solution is as follows:&lt;/li&gt;&lt;ol style=&quot;font-size: 14px;&quot;&gt;&lt;li style=&quot;font-size: 14px;&quot;&gt;Freelancers add their services on the platform including the category of their service.&lt;/li&gt;&lt;li style=&quot;font-size: 14px;&quot;&gt;The user is able to search for the service(s) they need using keywords or categories. (More on search below)&lt;/li&gt;&lt;li style=&quot;font-size: 14px;&quot;&gt;User can book the freelancers for the selected service using the widget provided by a third party booking platform of freelancer&#39;s choice. (More on booking platforms below)&lt;/li&gt;&lt;li style=&quot;font-size: 14px;&quot;&gt;Once the service is complete user and freelancer will be able to give a review about each other. (More on rating process below)&lt;br&gt;&lt;br&gt;&lt;/li&gt;&lt;/ol&gt;&lt;li style=&quot;font-size: 14px;&quot;&gt;Role management in the solution.&lt;br&gt;There are two major roles in this application&lt;/li&gt;&lt;ol style=&quot;&quot;&gt;&lt;li style=&quot;font-size: 14px;&quot;&gt;Admin, admins of the solution will have access to the admin application of this solution. This admin app will contain following modules&lt;/li&gt;&lt;ul&gt;&lt;li style=&quot;&quot;&gt;Dashboard&lt;/li&gt;&lt;li style=&quot;&quot;&gt;Preferences&lt;/li&gt;&lt;li style=&quot;&quot;&gt;Users&lt;/li&gt;&lt;li style=&quot;&quot;&gt;Services&lt;/li&gt;&lt;li style=&quot;&quot;&gt;Categories and Subcategories&lt;/li&gt;&lt;li style=&quot;&quot;&gt;Bookings&lt;/li&gt;&lt;/ul&gt;&lt;li style=&quot;font-size: 14px;&quot;&gt;User, a user can have two roles. A user can be a freelancer(service provider) or a client(consumer). The option to change roles will be available in the navbar of the user app. A user&#39;s views will depend on their role. Here are some views specific for each role.&lt;/li&gt;&lt;ul&gt;&lt;li&gt;&lt;span style=&quot;background-color: initial;&quot;&gt;Freelancer&lt;/span&gt;&lt;/li&gt;&lt;ul&gt;&lt;li&gt;&lt;span style=&quot;background-color: initial;&quot;&gt;Dashboard&lt;/span&gt;&lt;/li&gt;&lt;li&gt;&lt;span style=&quot;background-color: initial;&quot;&gt;Services&lt;/span&gt;&lt;/li&gt;&lt;li&gt;&lt;span style=&quot;background-color: initial;&quot;&gt;Bookings&lt;/span&gt;&lt;/li&gt;&lt;li&gt;&lt;span style=&quot;background-color: initial;&quot;&gt;Preferences&lt;/span&gt;&lt;/li&gt;&lt;/ul&gt;&lt;li&gt;&lt;span style=&quot;background-color: initial;&quot;&gt;Client&lt;/span&gt;&lt;/li&gt;&lt;ul&gt;&lt;li&gt;&lt;span style=&quot;background-color: initial;&quot;&gt;Home&lt;/span&gt;&lt;/li&gt;&lt;li&gt;&lt;span style=&quot;background-color: initial;&quot;&gt;Search&lt;/span&gt;&lt;/li&gt;&lt;li&gt;&lt;span style=&quot;background-color: initial;&quot;&gt;Service Details&lt;/span&gt;&lt;/li&gt;&lt;li&gt;&lt;span style=&quot;background-color: initial;&quot;&gt;Book appointment for service&lt;br&gt;&lt;br&gt;&lt;/span&gt;&lt;/li&gt;&lt;/ul&gt;&lt;/ul&gt;&lt;/ol&gt;&lt;li style=&quot;font-size: 14px;&quot;&gt;Different types of searches in the platform?&lt;br&gt;Searching for services in the platform is location based, search results will include only those services/freelancers that are within a certain distance from the user (for eg, 10 Km). User can increase this threshold from the search preferences but the default threshold will remain constant. This is to save time and complexity of the search.&lt;/li&gt;&lt;ul&gt;&lt;li style=&quot;font-size: 14px;&quot;&gt;Search by image&lt;br&gt;For this search user will provide a reference image, and the search results will include services that provide similar services to the reference image&amp;nbsp;&lt;/li&gt;&lt;li style=&quot;font-size: 14px;&quot;&gt;Search by text&lt;br&gt;In this search user will input text, and the search results will include services which have keywords that match literally or semantically with the user&#39;s search&lt;br&gt;&lt;br&gt;&lt;/li&gt;&lt;/ul&gt;&lt;li style=&quot;font-size: 14px;&quot;&gt;Recommendation System&lt;br&gt;The system will provide following types of recommendations based on the services taken by a client in the past&lt;/li&gt;&lt;ul&gt;&lt;li style=&quot;font-size: 14px;&quot;&gt;Suggested&lt;br&gt;These services are exactly similar to the services taken in the past.&lt;/li&gt;&lt;li style=&quot;font-size: 14px;&quot;&gt;Recommended&lt;br&gt;These services are often taken in addition with the services taken in the past.&amp;nbsp;&lt;/li&gt;&lt;li style=&quot;font-size: 14px;&quot;&gt;Try something new&lt;br&gt;These services may be of similar category as past services or provided by the freelancers whose services have been taken before but they do not match the services taken in the past.&lt;br&gt;&lt;br&gt;&lt;/li&gt;&lt;/ul&gt;&lt;li style=&quot;font-size: 14px;&quot;&gt;Analytics.&lt;br&gt;Google analytics will be integrated into the user app to provide statistics about the following&lt;/li&gt;&lt;ul&gt;&lt;li style=&quot;font-size: 14px;&quot;&gt;Service views&lt;/li&gt;&lt;li style=&quot;font-size: 14px;&quot;&gt;Freelancer profile views&lt;/li&gt;&lt;li style=&quot;font-size: 14px;&quot;&gt;Service bounce rate&lt;br&gt;&lt;br&gt;&lt;/li&gt;&lt;/ul&gt;&lt;li style=&quot;font-size: 14px;&quot;&gt;Email/Text Notifications.&lt;br&gt;Notifications will be sent through texts and emails to freelancers and clients when following events occur&lt;/li&gt;&lt;ul&gt;&lt;li style=&quot;font-size: 14px;&quot;&gt;Signup&lt;/li&gt;&lt;li style=&quot;font-size: 14px;&quot;&gt;Forgot Password&lt;/li&gt;&lt;li style=&quot;font-size: 14px;&quot;&gt;Activity on account by admin (ban, strike etc)&lt;/li&gt;&lt;li style=&quot;font-size: 14px;&quot;&gt;Activity on service (approve, ban etc)&lt;/li&gt;&lt;li style=&quot;font-size: 14px;&quot;&gt;Booking activity (booking made, cancelled etc)&lt;/li&gt;&lt;li style=&quot;font-size: 14px;&quot;&gt;promotions&amp;nbsp;&lt;br&gt;&lt;br&gt;&lt;/li&gt;&lt;/ul&gt;&lt;li style=&quot;font-size: 14px;&quot;&gt;How does rating system work?&lt;br&gt;The platform has following types of ratings&lt;/li&gt;&lt;ul&gt;&lt;li style=&quot;font-size: 14px;&quot;&gt;Booking ratings, at the completion of each booking both client and freelancer will rate each other.&lt;/li&gt;&lt;li style=&quot;font-size: 14px;&quot;&gt;Service rating, whenever a booking is rated, the service that booking was made on will be updated with the new rating. Currently, the service&#39;s rating is an average of all the bookings of that service provided by a freelancer. In future, this formula can be updated to incorporate more complex logic.&lt;/li&gt;&lt;li style=&quot;font-size: 14px;&quot;&gt;Freelancer rating, currently the freelancer&#39;s rating is an average of all the bookings provided by that freelancer. In future, this formula can be updated to incorporate more complex logic.&lt;br&gt;&lt;br&gt;&lt;/li&gt;&lt;/ul&gt;&lt;li style=&quot;font-size: 14px;&quot;&gt;Booking platforms&lt;br&gt;Initially the booking platforms are integrated through widgets provided by third party booking platforms. The flow is as follows&lt;/li&gt;&lt;ol&gt;&lt;li style=&quot;font-size: 14px;&quot;&gt;A booking platform is integrated by the freelancer, by providing their unique link/credentials&lt;/li&gt;&lt;li style=&quot;font-size: 14px;&quot;&gt;Client will book service using the widget&lt;/li&gt;&lt;li style=&quot;font-size: 14px;&quot;&gt;Once a booking is finalized, the booking will be recorded in the database.&lt;/li&gt;&lt;li style=&quot;font-size: 14px;&quot;&gt;Once booking time passes, both client and freelancer will be prompted to rate the booking&amp;nbsp;&lt;/li&gt;&lt;/ol&gt;&lt;/ul&gt;" style="rounded=0;whiteSpace=wrap;html=1;align=left;verticalAlign=top;spacing=10;spacingLeft=10;spacingRight=10;fontSize=14;" parent="1" vertex="1">
          <mxGeometry x="-825" y="29" width="800" height="1507" as="geometry" />
        </mxCell>
        <mxCell id="UXOGcqwC0pb2AC3sruDp-6" style="edgeStyle=orthogonalEdgeStyle;rounded=0;orthogonalLoop=1;jettySize=auto;html=1;" parent="1" source="UXOGcqwC0pb2AC3sruDp-5" target="Oak1mWo9v-8OV0q6VtSm-107" edge="1">
          <mxGeometry relative="1" as="geometry">
            <Array as="points">
              <mxPoint x="763" y="1313" />
              <mxPoint x="763" y="734" />
              <mxPoint x="598" y="734" />
            </Array>
          </mxGeometry>
        </mxCell>
        <mxCell id="UXOGcqwC0pb2AC3sruDp-7" value="1 : n" style="edgeLabel;html=1;align=center;verticalAlign=middle;resizable=0;points=[];" parent="UXOGcqwC0pb2AC3sruDp-6" vertex="1" connectable="0">
          <mxGeometry x="0.1868" y="2" relative="1" as="geometry">
            <mxPoint as="offset" />
          </mxGeometry>
        </mxCell>
        <mxCell id="Oak1mWo9v-8OV0q6VtSm-54" value="&lt;b&gt;Web App Architecture&lt;/b&gt;" style="text;html=1;strokeColor=none;fillColor=none;align=left;verticalAlign=middle;whiteSpace=wrap;rounded=0;" parent="1" vertex="1">
          <mxGeometry x="34" y="29" width="240" height="30" as="geometry" />
        </mxCell>
        <mxCell id="Oak1mWo9v-8OV0q6VtSm-56" value="www.kafka.ai" style="text;html=1;strokeColor=none;fillColor=none;align=center;verticalAlign=middle;whiteSpace=wrap;rounded=0;" parent="1" vertex="1">
          <mxGeometry x="334.5" y="88" width="80" height="30" as="geometry" />
        </mxCell>
        <mxCell id="Oak1mWo9v-8OV0q6VtSm-57" value="www.kafka.ai" style="text;html=1;strokeColor=none;fillColor=none;align=center;verticalAlign=middle;whiteSpace=wrap;rounded=0;" parent="1" vertex="1">
          <mxGeometry x="492.5" y="88" width="80" height="30" as="geometry" />
        </mxCell>
        <mxCell id="Oak1mWo9v-8OV0q6VtSm-58" style="edgeStyle=orthogonalEdgeStyle;rounded=0;orthogonalLoop=1;jettySize=auto;html=1;" parent="1" source="Oak1mWo9v-8OV0q6VtSm-59" edge="1">
          <mxGeometry relative="1" as="geometry">
            <mxPoint x="374.52564102564065" y="248" as="targetPoint" />
            <Array as="points">
              <mxPoint x="374.5" y="238" />
              <mxPoint x="374.5" y="238" />
            </Array>
          </mxGeometry>
        </mxCell>
        <mxCell id="Oak1mWo9v-8OV0q6VtSm-59" value="Route 53 Hosted Zone" style="outlineConnect=0;dashed=0;verticalLabelPosition=middle;verticalAlign=middle;align=right;html=1;shape=mxgraph.aws3.route_53;fillColor=#F58536;gradientColor=none;aspect=fixed;labelPosition=left;" parent="1" vertex="1">
          <mxGeometry x="356.5" y="148.09" width="36" height="43.67" as="geometry" />
        </mxCell>
        <mxCell id="Oak1mWo9v-8OV0q6VtSm-55" style="edgeStyle=orthogonalEdgeStyle;rounded=0;orthogonalLoop=1;jettySize=auto;html=1;" parent="1" source="Oak1mWo9v-8OV0q6VtSm-56" target="Oak1mWo9v-8OV0q6VtSm-59" edge="1">
          <mxGeometry relative="1" as="geometry" />
        </mxCell>
        <mxCell id="Oak1mWo9v-8OV0q6VtSm-60" style="edgeStyle=orthogonalEdgeStyle;rounded=0;orthogonalLoop=1;jettySize=auto;html=1;" parent="1" source="Oak1mWo9v-8OV0q6VtSm-61" target="Oak1mWo9v-8OV0q6VtSm-57" edge="1">
          <mxGeometry relative="1" as="geometry" />
        </mxCell>
        <mxCell id="Oak1mWo9v-8OV0q6VtSm-61" value="Amazon Cloudfront" style="outlineConnect=0;dashed=0;verticalLabelPosition=middle;verticalAlign=middle;align=right;html=1;shape=mxgraph.aws3.cloudfront;fillColor=#F58536;gradientColor=none;aspect=fixed;labelPosition=left;" parent="1" vertex="1">
          <mxGeometry x="514.5" y="148" width="36" height="43.76" as="geometry" />
        </mxCell>
        <mxCell id="Oak1mWo9v-8OV0q6VtSm-62" style="edgeStyle=orthogonalEdgeStyle;rounded=0;orthogonalLoop=1;jettySize=auto;html=1;entryX=0.5;entryY=1;entryDx=0;entryDy=0;entryPerimeter=0;" parent="1" target="Oak1mWo9v-8OV0q6VtSm-61" edge="1">
          <mxGeometry relative="1" as="geometry">
            <mxPoint x="532.5256410256411" y="248" as="sourcePoint" />
            <Array as="points">
              <mxPoint x="532.5" y="238" />
              <mxPoint x="532.5" y="238" />
            </Array>
          </mxGeometry>
        </mxCell>
        <mxCell id="UXOGcqwC0pb2AC3sruDp-40" style="edgeStyle=orthogonalEdgeStyle;rounded=0;orthogonalLoop=1;jettySize=auto;html=1;fontSize=12;fontColor=#000000;startArrow=classic;startFill=1;" parent="1" source="Oak1mWo9v-8OV0q6VtSm-63" target="UXOGcqwC0pb2AC3sruDp-33" edge="1">
          <mxGeometry relative="1" as="geometry" />
        </mxCell>
        <mxCell id="Oak1mWo9v-8OV0q6VtSm-63" value="" style="rounded=0;whiteSpace=wrap;html=1;fillColor=none;" parent="1" vertex="1">
          <mxGeometry x="268.5" y="248" width="370" height="80" as="geometry" />
        </mxCell>
        <mxCell id="Oak1mWo9v-8OV0q6VtSm-68" style="edgeStyle=orthogonalEdgeStyle;rounded=0;orthogonalLoop=1;jettySize=auto;html=1;strokeColor=default;startArrow=classic;startFill=1;" parent="1" source="Oak1mWo9v-8OV0q6VtSm-69" target="Oak1mWo9v-8OV0q6VtSm-4" edge="1">
          <mxGeometry relative="1" as="geometry">
            <Array as="points">
              <mxPoint x="678.5" y="298" />
              <mxPoint x="678.5" y="298" />
            </Array>
          </mxGeometry>
        </mxCell>
        <mxCell id="Oak1mWo9v-8OV0q6VtSm-69" value="AWS S3" style="outlineConnect=0;dashed=0;verticalLabelPosition=bottom;verticalAlign=top;align=center;html=1;shape=mxgraph.aws3.s3;fillColor=#E05243;gradientColor=none;aspect=fixed;" parent="1" vertex="1">
          <mxGeometry x="712.5" y="268.38" width="49" height="59.62" as="geometry" />
        </mxCell>
        <mxCell id="Oak1mWo9v-8OV0q6VtSm-70" value="" style="group;verticalAlign=middle;labelPosition=right;verticalLabelPosition=bottom;align=left;horizontal=1;spacingTop=7;textDirection=rtl;" parent="1" vertex="1" connectable="0">
          <mxGeometry x="707" y="367.65000000000003" width="60" height="60" as="geometry" />
        </mxCell>
        <mxCell id="Oak1mWo9v-8OV0q6VtSm-71" value="MongoDB" style="strokeWidth=2;html=1;shape=mxgraph.flowchart.database;whiteSpace=wrap;fillColor=none;" parent="Oak1mWo9v-8OV0q6VtSm-70" vertex="1">
          <mxGeometry width="60" height="60" as="geometry" />
        </mxCell>
        <mxCell id="Oak1mWo9v-8OV0q6VtSm-65" style="edgeStyle=orthogonalEdgeStyle;rounded=0;orthogonalLoop=1;jettySize=auto;html=1;entryX=0;entryY=0.5;entryDx=0;entryDy=0;entryPerimeter=0;" parent="1" source="UXOGcqwC0pb2AC3sruDp-33" target="Oak1mWo9v-8OV0q6VtSm-71" edge="1">
          <mxGeometry relative="1" as="geometry">
            <Array as="points">
              <mxPoint x="672.5" y="398" />
            </Array>
          </mxGeometry>
        </mxCell>
        <mxCell id="Oak1mWo9v-8OV0q6VtSm-72" value="&lt;font color=&quot;#000000&quot;&gt;Email Notifications&lt;/font&gt;" style="sketch=0;outlineConnect=0;fontColor=#232F3E;gradientColor=none;fillColor=#B0084D;strokeColor=none;dashed=0;verticalLabelPosition=bottom;verticalAlign=top;align=center;html=1;fontSize=12;fontStyle=0;aspect=fixed;pointerEvents=1;shape=mxgraph.aws4.email_notification;" parent="1" vertex="1">
          <mxGeometry x="57" y="128" width="53" height="53" as="geometry" />
        </mxCell>
        <mxCell id="Oak1mWo9v-8OV0q6VtSm-1" style="edgeStyle=orthogonalEdgeStyle;rounded=0;orthogonalLoop=1;jettySize=auto;html=1;startArrow=none;startFill=0;strokeColor=default;" parent="1" source="Oak1mWo9v-8OV0q6VtSm-3" target="Oak1mWo9v-8OV0q6VtSm-72" edge="1">
          <mxGeometry relative="1" as="geometry">
            <Array as="points">
              <mxPoint x="168.5" y="228" />
              <mxPoint x="168.5" y="154" />
            </Array>
          </mxGeometry>
        </mxCell>
        <mxCell id="Oak1mWo9v-8OV0q6VtSm-2" style="edgeStyle=orthogonalEdgeStyle;rounded=0;orthogonalLoop=1;jettySize=auto;html=1;startArrow=none;startFill=0;strokeColor=default;" parent="1" source="Oak1mWo9v-8OV0q6VtSm-3" target="UXOGcqwC0pb2AC3sruDp-10" edge="1">
          <mxGeometry relative="1" as="geometry">
            <Array as="points">
              <mxPoint x="177.5" y="294" />
              <mxPoint x="177.5" y="277" />
            </Array>
            <mxPoint x="118.5" y="277.0526315789474" as="targetPoint" />
          </mxGeometry>
        </mxCell>
        <mxCell id="Oak1mWo9v-8OV0q6VtSm-74" value="&lt;font color=&quot;#000000&quot;&gt;Google Analytics&lt;/font&gt;" style="shape=image;html=1;verticalAlign=top;verticalLabelPosition=bottom;labelBackgroundColor=#ffffff;imageAspect=0;aspect=fixed;image=https://cdn4.iconfinder.com/data/icons/for-your-interface-free-samples/128/Columns-128.png;dashed=0;fontFamily=Helvetica;fontSize=12;fontColor=#232F3E;align=center;strokeColor=none;fillColor=#B0084D;gradientColor=none;sketch=0;" parent="1" vertex="1">
          <mxGeometry x="57" y="373" width="53" height="53" as="geometry" />
        </mxCell>
        <mxCell id="Oak1mWo9v-8OV0q6VtSm-76" style="edgeStyle=orthogonalEdgeStyle;rounded=0;orthogonalLoop=1;jettySize=auto;html=1;" parent="1" source="Oak1mWo9v-8OV0q6VtSm-3" target="Oak1mWo9v-8OV0q6VtSm-74" edge="1">
          <mxGeometry relative="1" as="geometry">
            <Array as="points">
              <mxPoint x="174.5" y="348" />
              <mxPoint x="174.5" y="400" />
            </Array>
          </mxGeometry>
        </mxCell>
        <mxCell id="Oak1mWo9v-8OV0q6VtSm-75" value="Booking Platforms" style="shape=image;html=1;verticalAlign=top;verticalLabelPosition=bottom;labelBackgroundColor=#ffffff;imageAspect=0;aspect=fixed;image=https://cdn2.iconfinder.com/data/icons/essential-web-4/50/calendar-month-day-booking-date-128.png;fontFamily=Helvetica;fontSize=12;fontColor=default;align=center;strokeColor=default;fillColor=#fff;" parent="1" vertex="1">
          <mxGeometry x="58.5" y="487.65" width="60" height="60" as="geometry" />
        </mxCell>
        <mxCell id="Oak1mWo9v-8OV0q6VtSm-77" style="edgeStyle=orthogonalEdgeStyle;rounded=0;orthogonalLoop=1;jettySize=auto;html=1;entryX=1;entryY=0.5;entryDx=0;entryDy=0;" parent="1" source="Oak1mWo9v-8OV0q6VtSm-3" target="Oak1mWo9v-8OV0q6VtSm-75" edge="1">
          <mxGeometry relative="1" as="geometry">
            <Array as="points">
              <mxPoint x="178.5" y="438" />
              <mxPoint x="178.5" y="523" />
            </Array>
          </mxGeometry>
        </mxCell>
        <mxCell id="UXOGcqwC0pb2AC3sruDp-10" value="&lt;font style=&quot;font-size: 12px;&quot;&gt;Text Notifications&lt;/font&gt;" style="sketch=0;pointerEvents=1;shadow=0;dashed=0;html=1;strokeColor=none;fillColor=#505050;labelPosition=center;verticalLabelPosition=bottom;verticalAlign=top;outlineConnect=0;align=center;shape=mxgraph.office.communications.sms_gateway;fontSize=14;" parent="1" vertex="1">
          <mxGeometry x="57" y="253.5" width="59" height="47" as="geometry" />
        </mxCell>
        <mxCell id="UXOGcqwC0pb2AC3sruDp-25" value="" style="group" parent="1" vertex="1" connectable="0">
          <mxGeometry x="469.5" y="360" width="147" height="68" as="geometry" />
        </mxCell>
        <mxCell id="Oak1mWo9v-8OV0q6VtSm-66" value="" style="rounded=0;whiteSpace=wrap;html=1;fillColor=none;" parent="UXOGcqwC0pb2AC3sruDp-25" vertex="1">
          <mxGeometry width="147" height="68" as="geometry" />
        </mxCell>
        <mxCell id="Oak1mWo9v-8OV0q6VtSm-67" value="Node / Nest Backend" style="shape=image;html=1;verticalAlign=top;verticalLabelPosition=bottom;labelBackgroundColor=#ffffff;imageAspect=0;aspect=fixed;image=https://cdn1.iconfinder.com/data/icons/science-technology-outline-24-px/24/Computer_chip_integrated_circuit_memory_chip_microprocessor_processor_chip-128.png;fillColor=none;" parent="UXOGcqwC0pb2AC3sruDp-25" vertex="1">
          <mxGeometry x="53.30769230769231" y="5.95" width="39.464285714285715" height="39.464285714285715" as="geometry" />
        </mxCell>
        <mxCell id="UXOGcqwC0pb2AC3sruDp-34" value="" style="group" parent="1" vertex="1" connectable="0">
          <mxGeometry x="288.5" y="360" width="147" height="68" as="geometry" />
        </mxCell>
        <mxCell id="UXOGcqwC0pb2AC3sruDp-35" value="" style="rounded=0;whiteSpace=wrap;html=1;fillColor=none;" parent="UXOGcqwC0pb2AC3sruDp-34" vertex="1">
          <mxGeometry width="147" height="68" as="geometry" />
        </mxCell>
        <mxCell id="UXOGcqwC0pb2AC3sruDp-36" value="Python Backend" style="shape=image;html=1;verticalAlign=top;verticalLabelPosition=bottom;labelBackgroundColor=#ffffff;imageAspect=0;aspect=fixed;image=https://cdn1.iconfinder.com/data/icons/science-technology-outline-24-px/24/Computer_chip_integrated_circuit_memory_chip_microprocessor_processor_chip-128.png;fillColor=none;" parent="UXOGcqwC0pb2AC3sruDp-34" vertex="1">
          <mxGeometry x="53.30769230769231" y="5.95" width="39.464285714285715" height="39.464285714285715" as="geometry" />
        </mxCell>
        <mxCell id="UXOGcqwC0pb2AC3sruDp-42" value="" style="group" parent="1" vertex="1" connectable="0">
          <mxGeometry x="287.5" y="254" width="147" height="68" as="geometry" />
        </mxCell>
        <mxCell id="UXOGcqwC0pb2AC3sruDp-41" value="" style="rounded=0;whiteSpace=wrap;html=1;fillColor=none;" parent="UXOGcqwC0pb2AC3sruDp-42" vertex="1">
          <mxGeometry width="147" height="68" as="geometry" />
        </mxCell>
        <mxCell id="Oak1mWo9v-8OV0q6VtSm-64" value="User App" style="shape=image;html=1;verticalAlign=top;verticalLabelPosition=bottom;labelBackgroundColor=#ffffff;imageAspect=0;aspect=fixed;image=https://cdn1.iconfinder.com/data/icons/ionicons-fill-vol-2/512/logo-react-128.png;fillColor=none;labelPosition=center;align=center;" parent="UXOGcqwC0pb2AC3sruDp-42" vertex="1">
          <mxGeometry x="55" y="6.689999999999998" width="37" height="37" as="geometry" />
        </mxCell>
        <mxCell id="UXOGcqwC0pb2AC3sruDp-43" value="" style="group" parent="1" vertex="1" connectable="0">
          <mxGeometry x="469.5" y="254" width="147" height="68" as="geometry" />
        </mxCell>
        <mxCell id="UXOGcqwC0pb2AC3sruDp-44" value="" style="rounded=0;whiteSpace=wrap;html=1;fillColor=none;" parent="UXOGcqwC0pb2AC3sruDp-43" vertex="1">
          <mxGeometry width="147" height="68" as="geometry" />
        </mxCell>
        <mxCell id="UXOGcqwC0pb2AC3sruDp-45" value="Admin App" style="shape=image;html=1;verticalAlign=top;verticalLabelPosition=bottom;labelBackgroundColor=#ffffff;imageAspect=0;aspect=fixed;image=https://cdn1.iconfinder.com/data/icons/ionicons-fill-vol-2/512/logo-react-128.png;fillColor=none;labelPosition=center;align=center;" parent="UXOGcqwC0pb2AC3sruDp-43" vertex="1">
          <mxGeometry x="55" y="6.689999999999998" width="37" height="37" as="geometry" />
        </mxCell>
      </root>
    </mxGraphModel>
  </diagram>
</mxfile>
